<svg width="140" height="138" viewBox="0 0 140 138" fill="none" xmlns="http://www.w3.org/2000/svg">
<path d="M140 0H0L12.3529 123L70 137.471L127.647 123L140 0Z" fill="#0277BD"/>
<path d="M70 10.8529V126.256L116.118 114.679L126.412 10.8529H70Z" fill="#039BE5"/>
<path d="M107.471 28.9412H70V43.4118H90.1765L88.9412 57.8823H70V72.3529H88.1176L86.8824 88.6323L70 93.697V108.891L102.529 99.4853L105.412 57.8823L107.471 28.9412Z" fill="white"/>
<path d="M70 28.9412V43.4118H33.3529L32.1176 28.9412H70ZM51.0588 57.8823L51.8823 72.3529H70V57.8823H51.0588ZM52.7058 79.5882H36.2353L37.4706 99.4853L70 108.891V93.697L53.1176 88.6323L52.7058 79.5882Z" fill="#EEEEEE"/>
</svg>
