<svg width="140" height="140" viewBox="0 0 140 140" fill="none" xmlns="http://www.w3.org/2000/svg">
<path d="M70 0C51.4348 0 33.6301 7.37498 20.5025 20.5025C7.37498 33.6301 0 51.4348 0 70C0 88.5652 7.37498 106.37 20.5025 119.497C33.6301 132.625 51.4348 140 70 140C88.5652 140 106.37 132.625 119.497 119.497C132.625 106.37 140 88.5652 140 70C140 51.4348 132.625 33.6301 119.497 20.5025C106.37 7.37498 88.5652 0 70 0Z" fill="#D32F2F"/>
<path d="M41.2125 52.9445L36.3475 32.431L25.039 43.631L34.44 61.25C36.2495 58.1385 38.5385 55.3455 41.2125 52.9445ZM54.775 45.3215L59.4125 19.8135C58.8105 20.0375 41.545 26.831 41.545 26.831L43.9355 50.7325C47.1625 48.377 50.799 46.5115 54.775 45.3215ZM65.625 43.75C67.1895 43.75 68.768 43.897 70.3465 44.1105L87.045 17.5385L66.5 17.5L57.946 44.5375C60.417 44.03 62.979 43.75 65.625 43.75ZM85.0745 49.2555L115.5 24.9655L93.828 17.5L73.2235 44.5935C77.441 45.493 81.5115 47.1065 85.0745 49.2555ZM32.9945 64.043L23.1175 50.3545L17.5 62.8215L30.2645 72.9295C30.7825 69.797 31.7065 66.8185 32.9945 64.043ZM34.51 95.914L24.5 97.3175L29.7115 103.775L37.765 100.461C36.561 99.015 35.455 97.51 34.51 95.914ZM31.066 87.822L18.9315 84.7L21.9835 93.884L33.2815 93.618C32.361 91.7525 31.6295 89.8135 31.066 87.822ZM29.75 78.75C29.75 78.134 29.8095 77.5355 29.841 76.93L18.4415 68.796L17.5 79.884L30.3975 85.0745C29.995 82.999 29.75 80.8885 29.75 78.75Z" fill="#FEFDFD"/>
<path d="M41.895 104.731L42.9835 105.571L43.1655 105.704C43.176 105.686 43.1865 105.658 43.197 105.641C43.8935 104.185 46.0215 99.7535 57.3125 99.7535C60.123 99.7535 62.314 100.111 64.043 100.545L67.9875 99.603L60.879 84.672L57.0185 85.498L54.691 80.262L92.113 55.076L91.9905 54.9115L91.224 54.026C85.1375 47.7855 75.0855 43.7535 65.6215 43.7535C45.5035 43.7535 29.7465 59.129 29.7465 78.7535C29.75 88.6025 34.1495 98.049 41.895 104.731Z" fill="#FEFDFD"/>
<path d="M31.5 78.75C31.5 60.1055 46.4905 45.5 65.625 45.5C74.6935 45.5 84.2905 49.413 89.978 55.244L90.6675 56.049L93.5795 54.089C87.6365 47.1765 76.6535 42 65.625 42C44.3625 42 28 58.4535 28 78.75C28 90.258 33.5475 100.524 42.224 107.261L42.364 107.38C42.686 106.698 42.9765 106.089 43.197 105.637C43.365 105.291 43.617 104.769 44.051 104.184L42.9625 103.345C35.6545 97.0375 31.5 88.1685 31.5 78.75Z" fill="#FF8D69"/>
<path d="M46.375 95.8125C41.5625 91.875 38.5 85.75 38.5 78.75C38.5 64.029 50.414 50.75 65.625 50.75C65.912 50.75 66.2095 50.7395 66.5 50.75L63 49C47.103 50.253 35 62.93 35 78.75C35 85.813 37.7055 92.6555 42.511 98L46.375 95.8125Z" fill="#FF8D69"/>
<path d="M68.2535 100.153C66.7065 99.4 63.077 98 57.3125 98C48.7585 98 44.387 101.217 42.9905 102.491C42.6615 102.792 42.413 103.152 42.224 103.555L35 119C35 119 43.6415 115.5 51.1875 115.5C62.853 115.5 68.25 119 68.25 119L73.367 110.898L68.2535 100.153Z" fill="#E74743"/>
<path d="M63 102.812C61.6875 101.938 59.409 101.5 56.49 101.5C49.161 101.5 45.5875 104.776 45.0065 105.987C44.751 106.519 44.1595 107.663 43.764 108.5C43.764 108.5 49.0035 105 54.2535 103.688C57.2145 102.946 59.9375 102.812 63 102.812Z" fill="#FF8D69"/>
<path d="M54.6945 80.2585L57.022 85.4945L102.865 75.67L96.908 51.8455L54.6945 80.2585Z" fill="#FEFDFD"/>
<path d="M95.816 54.691L100.726 74.3365L58.044 83.482L56.8925 80.8885L95.816 54.691ZM98 49L52.5 79.625L56 87.5L105 77L98 49Z" fill="#FF8D69"/>
<path d="M61.4005 85.7605L81.165 127.288C84.14 126.049 90.867 122.714 92.6485 117.337C91.6265 114.825 87.0625 104.184 81.0845 98.8715C79.534 97.496 78.4595 96.705 77.476 95.984C75.9955 94.8955 74.5955 93.8665 72.2155 91.3185C67.844 86.6285 64.6835 85.869 61.4005 85.7605Z" fill="#FEFDFD"/>
<path d="M64.365 87.9165C66.2305 88.459 68.3095 89.6945 70.9415 92.512C73.43 95.179 74.893 96.2535 76.4435 97.391C77.427 98.112 78.442 98.861 79.926 100.177C85.2215 104.885 89.418 114.146 90.769 117.362C89.285 120.834 85.155 123.491 82.019 125.003L64.365 87.9165ZM60.2175 83.993C59.689 83.993 59.1605 84 58.625 84L80.283 129.5C80.283 129.5 92.316 125.563 94.5035 117.25C94.5035 117.25 89.432 103.943 82.2535 97.5625C78.316 94.0625 77.3255 94.22 73.5035 90.125C68.096 84.336 64.1795 83.993 60.2175 83.993Z" fill="#FF8D69"/>
</svg>
