<svg width="139" height="155" viewBox="0 0 139 155" fill="none" xmlns="http://www.w3.org/2000/svg">
<path d="M138.684 0H0L12.2368 138.684L69.3421 155L126.447 138.684L138.684 0Z" fill="#E65100"/>
<path d="M69.3421 12.2368V142.355L115.026 129.303L125.224 12.2368H69.3421Z" fill="#FF6D00"/>
<path d="M69.3421 81.579V65.2632H104.421L101.566 112.171L69.3421 122.776V105.645L86.0658 99.9342L87.2895 81.579H69.3421ZM105.645 48.9474L106.868 32.6316H69.3421V48.9474H105.645Z" fill="white"/>
<path d="M69.3421 105.645V122.776L37.1184 112.171L35.4869 89.7369H51.8026L52.6184 99.9342L69.3421 105.645ZM49.3553 48.9474H69.3421V32.6316H32.2237L35.079 81.579H69.3421V65.2632H50.579L49.3553 48.9474Z" fill="#EEEEEE"/>
</svg>
