<svg width="33" height="38" viewBox="0 0 33 38" fill="none" xmlns="http://www.w3.org/2000/svg">
<path d="M12.6026 36.0835C12.5117 36.0567 12.4037 35.996 12.2787 35.9013C12.1497 35.7887 12.0207 35.6761 11.8916 35.5635C11.7696 35.4399 11.664 35.3267 11.5749 35.224C11.4858 35.1214 11.4358 35.0665 11.4248 35.0595L4.08729 25.1835C3.93811 24.9811 3.91193 24.8643 4.00874 24.8332C4.09455 24.795 4.2304 24.8118 4.41628 24.8833C4.59814 24.9369 4.79355 25.0299 5.00251 25.1624C5.20048 25.2878 5.34602 25.4109 5.43911 25.5315C6.05193 26.4132 6.66676 27.3039 7.28361 28.2035C7.89643 29.0852 8.52721 29.9628 9.17597 30.8364C9.8207 31.6921 10.4869 32.5382 11.1745 33.3748C11.8511 34.2044 12.5722 35.0005 13.3375 35.763C13.3368 35.8859 13.31 35.9768 13.2572 36.0358C13.2113 36.0838 13.149 36.1214 13.0701 36.1485C12.9873 36.1577 12.9024 36.1578 12.8155 36.149C12.7355 36.1292 12.6646 36.1073 12.6026 36.0835ZM16.2859 31.1108C15.5968 31.6144 14.9466 31.8498 14.3353 31.817C13.7241 31.7842 13.1575 31.5715 12.6354 31.179C12.1094 30.7686 11.627 30.2162 11.1883 29.522C10.7456 28.8097 10.3447 28.0315 9.98557 27.1873C9.63345 26.3321 9.32571 25.4434 9.06235 24.5212C8.79898 23.5989 8.58163 22.7135 8.41027 21.865C8.23892 21.0164 8.11265 20.2427 8.03146 19.5438C7.95026 18.8449 7.91229 18.2967 7.91754 17.8992C7.92651 17.3499 8.02013 16.9468 8.19841 16.6898C8.36569 16.4259 8.58061 16.2692 8.84317 16.2198C9.10169 16.1524 9.39136 16.1818 9.71216 16.308C10.0289 16.4163 10.3433 16.577 10.6553 16.7901C10.9632 16.9853 11.2558 17.2169 11.5329 17.485C11.806 17.7352 12.0267 17.9829 12.1949 18.2283C12.3701 18.4627 12.4778 18.6697 12.5181 18.8494C12.5654 19.018 12.5081 19.1205 12.3464 19.1568C12.2515 19.112 12.1265 19.0174 11.9714 18.8728C11.8053 18.7214 11.6208 18.5504 11.4177 18.3601C11.2216 18.1587 11.0165 17.9594 10.8024 17.762C10.5883 17.5647 10.3858 17.3978 10.1948 17.2613C9.99976 17.1069 9.8203 17.0009 9.65642 16.9433C9.4995 16.8746 9.37868 16.8829 9.29395 16.9679C8.95102 17.2901 8.75176 17.8113 8.69617 18.5314C8.63656 19.2336 8.68601 20.0434 8.8445 20.9609C8.99897 21.8604 9.24143 22.8156 9.57187 23.8266C9.89828 24.8197 10.2781 25.7772 10.7112 26.6991C11.1443 27.6211 11.6132 28.4501 12.1179 29.1862C12.6116 29.9153 13.1085 30.4691 13.6085 30.8477C14.1045 31.2082 14.5791 31.3472 15.0324 31.2644C15.4816 31.1637 15.8728 30.7411 16.2059 29.9965C16.5152 29.3138 16.6612 28.597 16.6438 27.846C16.6224 27.0771 16.5541 26.3093 16.4388 25.5425C16.3195 24.7578 16.2077 23.9856 16.1034 23.2258C15.9882 22.459 15.9913 21.7365 16.1129 21.0582C16.1614 20.8114 16.2864 20.6749 16.4881 20.6485C16.6968 20.6112 16.8772 20.6793 17.0293 20.8527C17.1744 21.0372 17.2964 21.392 17.3953 21.9171C17.5011 22.4312 17.5711 23.0383 17.6054 23.7383C17.6356 24.4203 17.64 25.1553 17.6185 25.9433C17.586 26.7243 17.5164 27.4664 17.4099 28.1697C17.3103 28.8619 17.1657 29.4794 16.9759 30.022C16.7932 30.5536 16.5632 30.9166 16.2859 31.1108ZM30.9286 11.7641C30.1446 11.7605 29.4102 11.7884 28.7252 11.8476C28.0472 11.8958 27.3753 11.9709 26.7094 12.073C26.0324 12.1682 25.3416 12.2853 24.6368 12.4244C23.939 12.5525 23.1893 12.7017 22.3877 12.872C21.2227 13.1049 20.3178 13.3407 19.6731 13.5796C19.0354 13.8075 18.5915 14.058 18.3413 14.3311C18.0982 14.5932 18.0293 14.8964 18.1348 15.2407C18.2293 15.5781 18.4373 15.9797 18.7587 16.4455C19.0692 16.9043 19.4661 17.4333 19.9496 18.0326C20.433 18.6319 20.9332 19.3265 21.4499 20.1165C21.6112 20.3728 21.8005 20.6701 22.0178 21.0082C22.2311 21.3284 22.3436 21.6617 22.3552 22.0083C22.3577 22.2719 22.2505 22.3195 22.0334 22.1512C21.8054 21.9758 21.5202 21.6718 21.1779 21.239C20.8356 20.8062 20.4626 20.3001 20.0591 19.7206C19.6515 19.1232 19.2625 18.5452 18.8919 17.9866C18.5214 17.4281 18.2049 16.9423 17.9425 16.5294C17.6691 16.1094 17.5023 15.8496 17.4422 15.7499C16.9826 15.0886 16.5814 14.4567 16.2388 13.8542C15.8851 13.2446 15.539 12.6476 15.2003 12.063C14.8687 11.4674 14.5191 10.8759 14.1515 10.2883C13.7908 9.68983 13.3613 9.07845 12.8628 8.45422C12.8595 8.31342 12.8988 8.21498 12.9806 8.1589C13.0513 8.09585 13.1372 8.05775 13.238 8.04458C13.3388 8.03141 13.4422 8.05069 13.5482 8.10242C13.6501 8.13618 13.7271 8.18497 13.7792 8.24879C13.8693 8.39842 14.0121 8.63534 14.2074 8.95954C14.3987 9.26577 14.5996 9.59345 14.8099 9.94259C15.0163 10.2738 15.2206 10.5959 15.4229 10.9091C15.6142 11.2154 15.7604 11.4468 15.8616 11.6034C15.9026 11.6602 15.9903 11.7774 16.1244 11.9549C16.2476 12.1255 16.3711 12.2346 16.495 12.2823C16.7631 12.0052 16.9866 11.5918 17.1653 11.0422C17.351 10.4816 17.5026 9.85319 17.6202 9.15691C17.7447 8.44963 17.8467 7.70494 17.9261 6.92285C18.0015 6.12278 18.0615 5.3592 18.1061 4.6321C18.1576 3.894 18.1963 3.22483 18.2222 2.62459C18.244 2.00638 18.276 1.51798 18.3183 1.15938C18.3536 0.811786 18.4187 0.660368 18.5137 0.705131C18.6087 0.749894 18.7023 0.894025 18.7946 1.13752C18.8939 1.37003 18.9798 1.64799 19.0523 1.97142C19.1208 2.27688 19.1482 2.52549 19.1346 2.71726C19.1309 2.86906 19.1198 3.09328 19.1014 3.38992C19.072 3.67958 19.0411 3.98373 19.0087 4.30236C18.9654 4.61402 18.9305 4.9002 18.904 5.1609C18.8775 5.4216 18.8544 5.59191 18.8345 5.67184C18.7783 6.05243 18.6898 6.52047 18.569 7.07594C18.4482 7.63142 18.3245 8.21586 18.1978 8.82927C18.0781 9.43168 17.9748 10.0445 17.8881 10.6679C17.7974 11.2732 17.7594 11.8196 17.7743 12.3069C17.7846 12.4367 17.8018 12.5555 17.8259 12.6633C17.8461 12.7531 17.8752 12.841 17.9133 12.9268C17.9584 13.0016 18.0224 13.0344 18.1052 13.0253C18.3088 12.923 18.667 12.7956 19.1801 12.6428C19.6931 12.49 20.289 12.3282 20.9677 12.1571C21.6465 11.9861 22.3832 11.8209 23.1778 11.6617C23.9794 11.4914 24.7761 11.3411 25.5678 11.2108C26.3595 11.0805 27.1158 10.9817 27.8367 10.9145C28.5576 10.8472 29.1802 10.8256 29.7045 10.8496C30.2468 10.8696 30.6604 10.9467 30.9453 11.081C31.2302 11.2153 31.3234 11.4208 31.2251 11.6976C31.2001 11.7126 31.1517 11.7282 31.0799 11.7443C31.0149 11.7494 30.9645 11.756 30.9286 11.7641Z" fill="#53BFED"/>
</svg>
