<svg width="140" height="140" viewBox="0 0 140 140" fill="none" xmlns="http://www.w3.org/2000/svg">
<path d="M0 140V0H140V140H0Z" fill="#FFD600"/>
<path d="M91.5367 104.794C94.2278 109.165 97.1523 113.353 103.347 113.353C108.551 113.353 111.281 110.767 111.281 107.189C111.281 102.908 108.457 101.387 102.733 98.8945L99.5945 97.5567C90.5373 93.7145 84.5134 88.9 84.5134 78.7306C84.5134 69.3583 91.6884 62.2261 102.9 62.2261C110.884 62.2261 116.62 64.9911 120.758 72.2322L110.981 78.4817C108.831 74.6395 106.505 73.1267 102.9 73.1267C99.2211 73.1267 96.8917 75.4483 96.8917 78.4817C96.8917 82.2306 99.225 83.7472 104.611 86.0689L107.749 87.4067C118.424 91.9528 124.444 96.5961 124.444 107.034C124.444 118.281 115.562 124.444 103.639 124.444C91.9762 124.444 85.3534 118.592 81.6667 111.347L91.5367 104.794ZM46.48 105.113C48.4478 108.636 51.4384 111.347 55.7395 111.347C59.8539 111.347 62.2223 109.721 62.2223 103.402V62.2222H75.1839V105.393C75.1839 118.487 67.5889 124.444 56.4978 124.444C46.4762 124.444 39.2428 117.654 36.295 111.347L46.48 105.113Z" fill="#000001"/>
</svg>
