<svg width="83" height="68" viewBox="0 0 83 68" fill="none" xmlns="http://www.w3.org/2000/svg">
<path d="M1.03125 65.8438C1.46875 63.9062 2.21875 61.75 3.28125 59.375C4.40625 57 5.625 54.6562 6.9375 52.3438C8.25 50.0312 9.53125 47.8438 10.7812 45.7812C12.0312 43.6562 13.0312 41.875 13.7812 40.4375C14.1562 39.6875 14.7188 38.5625 15.4688 37.0625C16.2812 35.5 17.1562 33.75 18.0938 31.8125C19.0938 29.8125 20.125 27.75 21.1875 25.625C22.3125 23.5 23.3438 21.4688 24.2812 19.5312C25.2812 17.5312 26.1562 15.7812 26.9062 14.2812C27.7188 12.7188 28.3125 11.5625 28.6875 10.8125C30.625 8.8125 32.2188 8.25 33.4688 9.125C34.7812 10 35.9375 11.7812 36.9375 14.4688C37.9375 17.1562 38.8438 20.4688 39.6562 24.4062C40.4688 28.3438 41.3438 32.375 42.2812 36.5C43.2188 40.625 44.2812 44.5625 45.4688 48.3125C46.6562 52.0625 48.0938 55.0938 49.7812 57.4062C50.5938 57.7812 51.5625 57.375 52.6875 56.1875C53.875 55 55.1562 53.2812 56.5312 51.0312C57.9062 48.7188 59.3438 46.0312 60.8438 42.9688C62.3438 39.9062 63.8438 36.6875 65.3438 33.3125C66.9062 29.9375 68.4062 26.5312 69.8438 23.0938C71.2812 19.6562 72.625 16.5 73.875 13.625C75.125 10.6875 76.1875 8.125 77.0625 5.9375C78 3.75 78.7188 2.21875 79.2188 1.34375C79.6562 0.53125 80.0938 0.15625 80.5312 0.21875C81.0312 0.21875 81.4375 0.46875 81.75 0.96875C82.0625 1.40625 82.2812 2 82.4062 2.75C82.5938 3.4375 82.5938 4.0625 82.4062 4.625C80.4062 10.0625 78.5312 14.9688 76.7812 19.3438C75.0312 23.7188 73.2188 27.9375 71.3438 32C69.5312 36.0625 67.5625 40.2188 65.4375 44.4688C63.375 48.6562 61 53.3125 58.3125 58.4375C56.3125 60.875 54.375 62.25 52.5 62.5625C50.625 62.8125 48.6875 61.4375 46.6875 58.4375C44.625 54.8125 43 51.375 41.8125 48.125C40.625 44.875 39.5938 41.6875 38.7188 38.5625C37.9062 35.375 37.1562 32.1562 36.4688 28.9062C35.7812 25.5938 34.9375 22.0312 33.9375 18.2188C33.375 17.8438 32.4375 18.5 31.125 20.1875C29.8125 21.875 28.2812 24.125 26.5312 26.9375C24.8438 29.75 23.0625 32.9062 21.1875 36.4062C19.3125 39.9062 17.5312 43.2812 15.8438 46.5312C14.1562 49.7812 12.6562 52.6875 11.3438 55.25C10.0312 57.8125 9.09375 59.5938 8.53125 60.5938C8.21875 61.1562 7.8125 61.8438 7.3125 62.6562C6.875 63.4688 6.40625 64.2812 5.90625 65.0938C5.46875 65.9062 5.0625 66.5938 4.6875 67.1562C4.375 67.7188 4.21875 68 4.21875 68H1.03125C0.96875 67.875 0.9375 67.5312 0.9375 66.9688C0.9375 66.4062 0.96875 66.0312 1.03125 65.8438Z" fill="#53BFED"/>
</svg>
