<svg width="108" height="142" viewBox="0 0 108 142" fill="none" xmlns="http://www.w3.org/2000/svg">
<path d="M1.03125 101.844C1.46875 99.9062 2.21875 97.75 3.28125 95.375C4.40625 93 5.625 90.6562 6.9375 88.3438C8.25 86.0312 9.53125 83.8438 10.7812 81.7812C12.0312 79.6562 13.0312 77.875 13.7812 76.4375C14.1562 75.6875 14.7188 74.5625 15.4688 73.0625C16.2812 71.5 17.1562 69.75 18.0938 67.8125C19.0938 65.8125 20.125 63.75 21.1875 61.625C22.3125 59.5 23.3438 57.4688 24.2812 55.5312C25.2812 53.5312 26.1562 51.7812 26.9062 50.2812C27.7188 48.7188 28.3125 47.5625 28.6875 46.8125C30.625 44.8125 32.2188 44.25 33.4688 45.125C34.7812 46 35.9375 47.7812 36.9375 50.4688C37.9375 53.1562 38.8438 56.4688 39.6562 60.4062C40.4688 64.3438 41.3438 68.375 42.2812 72.5C43.2188 76.625 44.2812 80.5625 45.4688 84.3125C46.6562 88.0625 48.0938 91.0938 49.7812 93.4062C50.5938 93.7812 51.5625 93.375 52.6875 92.1875C53.875 91 55.1562 89.2812 56.5312 87.0312C57.9062 84.7188 59.3438 82.0312 60.8438 78.9688C62.3438 75.9062 63.8438 72.6875 65.3438 69.3125C66.9062 65.9375 68.4062 62.5312 69.8438 59.0938C71.2812 55.6562 72.625 52.5 73.875 49.625C75.125 46.6875 76.1875 44.125 77.0625 41.9375C78 39.75 78.7188 38.2188 79.2188 37.3438C79.6562 36.5312 80.0938 36.1562 80.5312 36.2188C81.0312 36.2188 81.4375 36.4688 81.75 36.9688C82.0625 37.4062 82.2812 38 82.4062 38.75C82.5938 39.4375 82.5938 40.0625 82.4062 40.625C80.4062 46.0625 78.5312 50.9688 76.7812 55.3438C75.0312 59.7188 73.2188 63.9375 71.3438 68C69.5312 72.0625 67.5625 76.2188 65.4375 80.4688C63.375 84.6562 61 89.3125 58.3125 94.4375C56.3125 96.875 54.375 98.25 52.5 98.5625C50.625 98.8125 48.6875 97.4375 46.6875 94.4375C44.625 90.8125 43 87.375 41.8125 84.125C40.625 80.875 39.5938 77.6875 38.7188 74.5625C37.9062 71.375 37.1562 68.1562 36.4688 64.9062C35.7812 61.5938 34.9375 58.0312 33.9375 54.2188C33.375 53.8438 32.4375 54.5 31.125 56.1875C29.8125 57.875 28.2812 60.125 26.5312 62.9375C24.8438 65.75 23.0625 68.9062 21.1875 72.4062C19.3125 75.9062 17.5312 79.2812 15.8438 82.5312C14.1562 85.7812 12.6562 88.6875 11.3438 91.25C10.0312 93.8125 9.09375 95.5938 8.53125 96.5938C8.21875 97.1562 7.8125 97.8438 7.3125 98.6562C6.875 99.4688 6.40625 100.281 5.90625 101.094C5.46875 101.906 5.0625 102.594 4.6875 103.156C4.375 103.719 4.21875 104 4.21875 104H1.03125C0.96875 103.875 0.9375 103.531 0.9375 102.969C0.9375 102.406 0.96875 102.031 1.03125 101.844Z" fill="#53BFED"/>
<path d="M54.6026 82.0835C54.5117 82.0567 54.4037 81.996 54.2787 81.9013C54.1497 81.7887 54.0207 81.6761 53.8916 81.5635C53.7696 81.4399 53.664 81.3267 53.5749 81.224C53.4858 81.1214 53.4358 81.0665 53.4248 81.0595L46.0873 71.1835C45.9381 70.9811 45.9119 70.8643 46.0087 70.8332C46.0946 70.795 46.2304 70.8118 46.4163 70.8833C46.5981 70.9369 46.7935 71.0299 47.0025 71.1624C47.2005 71.2878 47.346 71.4109 47.4391 71.5315C48.0519 72.4132 48.6668 73.3039 49.2836 74.2035C49.8964 75.0852 50.5272 75.9628 51.176 76.8364C51.8207 77.6921 52.4869 78.5382 53.1745 79.3748C53.8511 80.2044 54.5722 81.0005 55.3375 81.763C55.3368 81.8859 55.31 81.9768 55.2572 82.0358C55.2113 82.0838 55.149 82.1214 55.0701 82.1485C54.9873 82.1577 54.9024 82.1578 54.8155 82.149C54.7355 82.1292 54.6646 82.1073 54.6026 82.0835ZM58.2859 77.1108C57.5968 77.6144 56.9466 77.8498 56.3353 77.817C55.7241 77.7842 55.1575 77.5715 54.6354 77.179C54.1094 76.7686 53.627 76.2162 53.1883 75.522C52.7456 74.8097 52.3447 74.0315 51.9856 73.1873C51.6335 72.3321 51.3257 71.4434 51.0623 70.5212C50.799 69.5989 50.5816 68.7135 50.4103 67.865C50.2389 67.0164 50.1127 66.2427 50.0315 65.5438C49.9503 64.8449 49.9123 64.2967 49.9175 63.8992C49.9265 63.3499 50.0201 62.9468 50.1984 62.6898C50.3657 62.4259 50.5806 62.2692 50.8432 62.2198C51.1017 62.1524 51.3914 62.1818 51.7122 62.308C52.0289 62.4163 52.3433 62.577 52.6553 62.7901C52.9632 62.9853 53.2558 63.2169 53.5329 63.485C53.806 63.7352 54.0267 63.9829 54.1949 64.2283C54.3701 64.4627 54.4778 64.6697 54.5181 64.8494C54.5654 65.018 54.5081 65.1205 54.3464 65.1568C54.2515 65.112 54.1265 65.0174 53.9714 64.8728C53.8053 64.7214 53.6208 64.5504 53.4177 64.3601C53.2216 64.1587 53.0165 63.9594 52.8024 63.762C52.5883 63.5647 52.3858 63.3978 52.1948 63.2613C51.9998 63.1069 51.8203 63.0009 51.6564 62.9433C51.4995 62.8746 51.3787 62.8829 51.294 62.9679C50.951 63.2901 50.7518 63.8113 50.6962 64.5314C50.6366 65.2336 50.686 66.0434 50.8445 66.9609C50.999 67.8604 51.2414 68.8156 51.5719 69.8266C51.8983 70.8197 52.2781 71.7772 52.7112 72.6991C53.1443 73.6211 53.6132 74.4501 54.1179 75.1862C54.6116 75.9153 55.1085 76.4691 55.6085 76.8477C56.1045 77.2082 56.5791 77.3472 57.0324 77.2644C57.4816 77.1637 57.8728 76.7411 58.2059 75.9965C58.5152 75.3138 58.6612 74.597 58.6438 73.846C58.6224 73.0771 58.5541 72.3093 58.4388 71.5425C58.3195 70.7578 58.2077 69.9856 58.1034 69.2258C57.9882 68.459 57.9913 67.7365 58.1129 67.0582C58.1614 66.8114 58.2864 66.6749 58.4881 66.6485C58.6968 66.6112 58.8772 66.6793 59.0293 66.8527C59.1744 67.0372 59.2964 67.392 59.3953 67.9171C59.5011 68.4312 59.5711 69.0383 59.6054 69.7383C59.6356 70.4203 59.64 71.1553 59.6185 71.9433C59.586 72.7243 59.5164 73.4664 59.4099 74.1697C59.3103 74.8619 59.1657 75.4794 58.9759 76.022C58.7932 76.5536 58.5632 76.9166 58.2859 77.1108ZM72.9286 57.7641C72.1446 57.7605 71.4102 57.7884 70.7252 57.8476C70.0472 57.8958 69.3753 57.9709 68.7094 58.073C68.0324 58.1682 67.3416 58.2853 66.6368 58.4244C65.939 58.5525 65.1893 58.7017 64.3877 58.872C63.2227 59.1049 62.3178 59.3407 61.6731 59.5796C61.0354 59.8075 60.5915 60.058 60.3413 60.3311C60.0982 60.5932 60.0293 60.8964 60.1348 61.2407C60.2293 61.5781 60.4373 61.9797 60.7587 62.4455C61.0692 62.9043 61.4661 63.4333 61.9496 64.0326C62.433 64.6319 62.9332 65.3265 63.4499 66.1165C63.6112 66.3728 63.8005 66.6701 64.0178 67.0082C64.2311 67.3284 64.3436 67.6617 64.3552 68.0083C64.3577 68.2719 64.2505 68.3195 64.0334 68.1512C63.8054 67.9758 63.5202 67.6718 63.1779 67.239C62.8356 66.8062 62.4626 66.3001 62.0591 65.7206C61.6515 65.1232 61.2625 64.5452 60.8919 63.9866C60.5214 63.4281 60.2049 62.9423 59.9425 62.5294C59.6691 62.1094 59.5023 61.8496 59.4422 61.7499C58.9826 61.0886 58.5814 60.4567 58.2388 59.8542C57.8851 59.2446 57.539 58.6476 57.2003 58.063C56.8687 57.4674 56.5191 56.8759 56.1515 56.2883C55.7908 55.6898 55.3613 55.0785 54.8628 54.4542C54.8595 54.3134 54.8988 54.215 54.9806 54.1589C55.0513 54.0959 55.1372 54.0577 55.238 54.0446C55.3388 54.0314 55.4422 54.0507 55.5482 54.1024C55.6501 54.1362 55.7271 54.185 55.7792 54.2488C55.8693 54.3984 56.0121 54.6353 56.2074 54.9595C56.3987 55.2658 56.5996 55.5934 56.8099 55.9426C57.0163 56.2738 57.2206 56.5959 57.4229 56.9091C57.6142 57.2154 57.7604 57.4468 57.8616 57.6034C57.9026 57.6602 57.9903 57.7774 58.1244 57.9549C58.2476 58.1255 58.3711 58.2346 58.495 58.2823C58.7631 58.0052 58.9866 57.5918 59.1653 57.0422C59.351 56.4816 59.5026 55.8532 59.6202 55.1569C59.7447 54.4496 59.8467 53.7049 59.9261 52.9228C60.0015 52.1228 60.0615 51.3592 60.1061 50.6321C60.1576 49.894 60.1963 49.2248 60.2222 48.6246C60.244 48.0064 60.276 47.518 60.3183 47.1594C60.3536 46.8118 60.4187 46.6604 60.5137 46.7051C60.6087 46.7499 60.7023 46.894 60.7946 47.1375C60.8939 47.37 60.9798 47.648 61.0523 47.9714C61.1208 48.2769 61.1482 48.5255 61.1346 48.7173C61.1309 48.8691 61.1198 49.0933 61.1014 49.3899C61.072 49.6796 61.0411 49.9837 61.0087 50.3024C60.9654 50.614 60.9305 50.9002 60.904 51.1609C60.8775 51.4216 60.8544 51.5919 60.8345 51.6718C60.7783 52.0524 60.6898 52.5205 60.569 53.0759C60.4482 53.6314 60.3245 54.2159 60.1978 54.8293C60.0781 55.4317 59.9748 56.0445 59.8881 56.6679C59.7974 57.2732 59.7594 57.8196 59.7743 58.3069C59.7846 58.4367 59.8018 58.5555 59.8259 58.6633C59.8461 58.7531 59.8752 58.841 59.9133 58.9268C59.9584 59.0016 60.0224 59.0344 60.1052 59.0253C60.3088 58.923 60.667 58.7956 61.1801 58.6428C61.6931 58.49 62.289 58.3282 62.9677 58.1571C63.6465 57.9861 64.3832 57.8209 65.1778 57.6617C65.9794 57.4914 66.7761 57.3411 67.5678 57.2108C68.3595 57.0805 69.1158 56.9817 69.8367 56.9145C70.5576 56.8472 71.1802 56.8256 71.7045 56.8496C72.2468 56.8696 72.6604 56.9467 72.9453 57.081C73.2302 57.2153 73.3234 57.4208 73.2251 57.6976C73.2001 57.7126 73.1517 57.7282 73.0799 57.7443C73.0149 57.7494 72.9645 57.756 72.9286 57.7641Z" fill="#53BFED"/>
</svg>
